# xmcd
#
# Track frame offsets:
#	150
#	19965
#	39970
#	61047
#	75545
#	92147
#	115267
#	131000
#	145017
#	162275
#	177277
#	195777
#	210987
#
# Disc length: 3049 seconds
#
# Revision: 1
# Processed by: cddbd v1.5.1PL0 Copyright (c) Steve Scherf et al.
# Submitted via: EasyCDDAExtractor 7.1.3.1
#
DISCID=9d0be70d
DTITLE=jayne
DYEAR=2003
DGENRE=brega
TTITLE0=esses meninos cowboys
TTITLE1=eu te quero demais
TTITLE2=mississipi
TTITLE3=nao precisa ser um anjo
TTITLE4=bang bang de amor
TTITLE5=distancia danada
TTITLE6=o amor voce e eu
TTITLE7=cowboy radical
TTITLE8=mais uma mentira
TTITLE9=ultimo trem
TTITLE10=dia de formatura
TTITLE11=preciso dizer adeus
TTITLE12=a solidao
EXTD=
EXTT0=
EXTT1=
EXTT2=
EXTT3=
EXTT4=
EXTT5=
EXTT6=
EXTT7=
EXTT8=
EXTT9=
EXTT10=
EXTT11=
EXTT12=
PLAYORDER=
